Coordinates
version=1
nRows=10
nColumns=40
inDegrees=yes

Units are S.I. units (second, meters, Newtons, ...)
Angles are in degrees.

endheader
time	pelvis_tilt	pelvis_list	pelvis_rotation	pelvis_tx	pelvis_ty	pelvis_tz	hip_flexion_r	hip_adduction_r	hip_rotation_r	knee_angle_r	knee_angle_r_beta	ankle_angle_r	subtalar_angle_r	mtp_angle_r	hip_flexion_l	hip_adduction_l	hip_rotation_l	knee_angle_l	knee_angle_l_beta	ankle_angle_l	subtalar_angle_l	mtp_angle_l	lumbar_extension	lumbar_bending	lumbar_rotation	arm_flex_r	arm_add_r	arm_rot_r	elbow_flex_r	pro_sup_r	wrist_flex_r	wrist_dev_r	arm_flex_l	arm_add_l	arm_rot_l	elbow_flex_l	pro_sup_l	wrist_flex_l	wrist_dev_l
     11.56000000	      0.13642524	     -0.16528922	      1.21946459	      0.85423919	      0.93379865	      0.41969018	     30.40408053	    -11.27728302	     -9.25090255	     71.69687920	     71.69687920	      3.37308449	    -18.85884023	     10.56036894	     11.28849523	      0.69640304	     -9.15927657	     19.23062636	     19.23062636	     11.12922492	    -10.02391854	     -5.73742894	     -8.98299539	      1.17996440	      1.15319367	     -4.30487838	    -13.46529466	     -4.77540820	     56.49829371	     45.51662636	      0.00000000	      0.00000000	     13.50788351	    -11.23178986	      3.69054505	     44.31316114	     45.92371873	      0.00000000	      0.00000000
     11.57214286	      0.24944832	     -0.10697904	      0.90563171	      0.85356297	      0.93473034	      0.41895731	     31.08933738	    -11.15358638	     -8.80648259	     69.82388371	     69.82388371	      3.35472432	    -18.66987990	      9.18610129	     10.12733669	      0.86596509	     -9.47160254	     18.25618713	     18.25618713	     11.14048628	     -9.73304182	     -6.30614176	     -9.13224688	      1.09843123	      1.34135332	     -5.17907802	    -13.32511828	     -4.48488974	     52.23440101	     45.64614511	      0.00000000	      0.00000000	     14.41324484	    -11.30011714	      3.34619992	     45.78005073	     45.99706947	      0.00000000	      0.00000000
     11.58428571	      0.37319430	     -0.08977727	      0.59629524	      0.85289356	      0.93560987	      0.41825186	     31.65777852	    -10.94303855	     -8.37923429	     67.79842320	     67.79842320	      3.58085900	    -18.40266748	      8.90474341	      8.96093994	      0.98659851	     -9.87435510	     17.29469462	     17.29469462	     11.33493786	     -9.20447857	     -6.37061733	     -9.33260469	      1.11221036	      1.92457254	     -6.96249331	    -13.45138413	     -4.15332263	     50.19478186	     45.69425101	      0.00000000	      0.00000000	     15.55954375	    -11.08056095	      3.07113374	     47.14021849	     46.05095766	      0.00000000	      0.00000000
     11.59642857	      0.47377318	     -0.05492415	      0.31906601	      0.85219679	      0.93628510	      0.41763280	     32.04474071	    -10.81058585	     -8.10007042	     65.44644792	     65.44644792	      3.21835769	    -18.17965988	      6.78129045	      7.86380489	      1.09551717	    -10.39002116	     16.37232281	     16.37232281	     11.31500551	     -8.50724509	     -7.29878191	     -9.45186295	      1.02254601	      1.45259919	     -6.59363722	    -13.05538539	     -3.67120933	     43.94732073	     45.89324217	      0.00000000	      0.00000000	     15.73268594	    -11.56869373	      2.24346940	     49.75293321	     46.17169801	      0.00000000	      0.00000000
     11.60857143	      0.57076644	     -0.00115870	      0.07766019	      0.85147033	      0.93682063	      0.41701322	     32.32560218	    -10.69136436	     -7.87376423	     62.91097810	     62.91097810	      3.15103103	    -17.85309477	      5.72744660	      6.79724579	      1.26788392	    -10.72280582	     15.47363325	     15.47363325	     11.39361822	     -8.02384415	     -7.66403217	     -9.62029882	      0.94697004	      1.44318304	     -7.34021739	    -12.98547731	     -3.15861513	     40.44130515	     45.98131048	      0.00000000	      0.00000000	     16.30863274	    -11.63320319	      1.28639346	     51.80084926	     46.30004695	      0.00000000	      0.00000000
     11.62071429	      0.62305526	     -0.06623478	     -0.08839272	      0.85067150	      0.93718953	      0.41640628	     32.47598609	    -10.45737198	     -7.82623059	     60.08959277	     60.08959277	      3.35621142	    -17.41653665	      5.73109722	      5.86572635	      1.30864670	    -10.95093061	     14.72091314	     14.72091314	     11.61903430	     -7.54500271	     -7.75158063	     -9.78762530	      1.05635702	      1.70364036	     -8.84670931	    -13.06698197	     -2.94143458	     38.89385401	     46.01649978	      0.00000000	      0.00000000	     17.27331738	    -11.46292940	      0.97531880	     53.00211603	     46.35137373	      0.00000000	      0.00000000
     11.63285714	      0.63960961	      0.00017114	     -0.24711063	      0.84992746	      0.93729276	      0.41594255	     32.47847743	    -10.37018013	     -7.84231245	     56.92296844	     56.92296844	      3.02286843	    -17.08870371	      3.93600567	      4.99827975	      1.43450714	    -11.46803890	     13.99828514	     13.99828514	     11.63128975	     -6.71812672	     -8.60326343	     -9.83964734	      0.93874855	      1.11121118	     -8.50744672	    -12.79509495	     -2.59229081	     33.78203742	     46.18350073	      0.00000000	      0.00000000	     17.25221911	    -11.85746008	     -0.35493844	     55.77746566	     46.51238556	      0.00000000	      0.00000000
     11.64500000	      0.63654376	      0.01948563	     -0.36732226	      0.84914376	      0.93726253	      0.41550095	     32.38056315	    -10.23070583	     -7.99146849	     53.56115384	     53.56115384	      3.25862047	    -16.43070443	      3.97180907	      4.21889674	      1.54803158	    -11.66202108	     13.39672009	     13.39672009	     11.85142177	     -6.25966413	     -8.71058555	     -9.92985516	      0.93026854	      1.33946507	     -9.98561920	    -12.89750586	     -2.48739554	     32.63632015	     46.20901697	      0.00000000	      0.00000000	     18.14973144	    -11.75497464	     -0.71501029	     56.94058136	     46.56564072	      0.00000000	      0.00000000
     11.65714286	      0.59902690	      0.05442445	     -0.47606332	      0.84840518	      0.93704590	      0.41519717	     32.14013831	    -10.10604227	     -8.27915491	     49.91527537	     49.91527537	      3.43040405	    -15.59826174	      3.79071446	      3.47148920	      1.65211797	    -11.95836980	     12.79032081	     12.79032081	     12.06791770	     -5.60764429	     -8.99322078	     -9.99022729	      0.88832839	      1.52321822	    -11.30420460	    -12.93928566	     -2.41505726	     31.24177030	     46.24877587	      0.00000000	      0.00000000	     18.89069668	    -11.70925438	     -1.16642722	     58.37675312	     46.62840029	      0.00000000	      0.00000000
     11.66928571	      0.46077279	      0.10613265	     -0.58494717	      0.84775048	      0.93653250	      0.41505614	     31.75737087	     -9.96085233	     -8.72415704	     45.83792829	     45.83792829	      2.72471109	    -15.00918531	      1.22850989	      2.90829933	      1.71339146	    -12.49469408	     12.33257814	     12.33257814	     12.23239740	     -4.71543748	     -9.78876960	     -9.90294251	      0.75277055	      0.76919062	    -11.29990462	    -12.83532200	     -2.67890805	     28.02463323	     46.39243048	      0.00000000	      0.00000000	     18.51446365	    -12.04437657	     -2.81518568	     61.29084198	     46.81125721	      0.00000000	      0.00000000
